# xmcd
#
# Track frame offsets:
#	182
#	16470
#	35260
#	52390
#	73850
#	97412
#	118160
#	133497
#	152905
#	171557
#
# Disc length: 2564 seconds
#
# Revision: 3
# Processed by: cddbd v1.5.2PL0 Copyright (c) Steve Scherf et al.
# Submitted via: EasyCDDAExtractor 15.3.0.1
#
DISCID=a30a020a
DTITLE=Alejandra Guzman - Cambio De Piel
DYEAR=1996
DGENRE=Latin
TTITLE0=Guerra Fria
TTITLE1=Ven
TTITLE2=Toda La Mitad
TTITLE3=Como Las Nueces
TTITLE4=Larga Distancia De Ansiedad
TTITLE5=Quema Despacio
TTITLE6=Cuenta Conmigo
TTITLE7=Tocarte
TTITLE8=Recordaras
TTITLE9=Buscando Tu Amor
EXTD=YEAR: 1996
EXTT0=
EXTT1=
EXTT2=
EXTT3=
EXTT4=
EXTT5=
EXTT6=
EXTT7=
EXTT8=
EXTT9=
PLAYORDER=
